<svg width="500" height="500" viewBox="0 0 500 500" fill="none" xmlns="http://www.w3.org/2000/svg">
<rect x="130" y="140" width="20" height="20" fill="#CFD4FF"/>
<rect width="20" height="20" transform="matrix(-1 0 0 1 370 140)" fill="#7881D0"/>
<rect x="150" y="160" width="20" height="20" fill="#CFD4FF"/>
<rect width="20" height="20" transform="matrix(-1 0 0 1 350 160)" fill="#7881D0"/>
<rect x="170" y="180" width="20" height="20" fill="#CFD4FF"/>
<rect width="20" height="20" transform="matrix(-1 0 0 1 330 180)" fill="#7881D0"/>
<rect x="190" y="200" width="20" height="20" fill="#CFD4FF"/>
<rect width="20" height="20" transform="matrix(-1 0 0 1 310 200)" fill="#7881D0"/>
<rect x="210" y="220" width="20" height="20" fill="#CFD4FF"/>
<rect width="20" height="20" transform="matrix(-1 0 0 1 290 220)" fill="#7881D0"/>
<rect x="230" y="240" width="20" height="20" fill="#CFD4FF"/>
<rect width="20" height="20" transform="matrix(-1 0 0 1 270 240)" fill="#CFD4FF"/>
<rect x="250" y="260" width="20" height="20" fill="#CFD4FF"/>
<rect width="20" height="20" transform="matrix(-1 0 0 1 250 260)" fill="#7881D0"/>
<rect x="270" y="280" width="20" height="20" fill="#CFD4FF"/>
<rect width="20" height="20" transform="matrix(-1 0 0 1 230 280)" fill="#7881D0"/>
<rect x="290" y="300" width="20" height="20" fill="#CFD4FF"/>
<rect width="20" height="20" transform="matrix(-1 0 0 1 210 300)" fill="#7881D0"/>
<rect x="310" y="320" width="20" height="20" fill="#CFD4FF"/>
<rect width="20" height="20" transform="matrix(-1 0 0 1 190 320)" fill="#7881D0"/>
<rect x="330" y="340" width="20" height="20" fill="#CFD4FF"/>
<rect width="20" height="20" transform="matrix(-1 0 0 1 170 340)" fill="#7881D0"/>
<rect x="150" y="140" width="20" height="20" fill="#CFD4FF"/>
<rect width="20" height="20" transform="matrix(-1 0 0 1 350 140)" fill="#7881D0"/>
<rect x="170" y="160" width="20" height="20" fill="#CFD4FF"/>
<rect width="20" height="20" transform="matrix(-1 0 0 1 330 160)" fill="#7881D0"/>
<rect x="190" y="180" width="20" height="20" fill="#CFD4FF"/>
<rect width="20" height="20" transform="matrix(-1 0 0 1 310 180)" fill="#7881D0"/>
<rect x="210" y="200" width="20" height="20" fill="#CFD4FF"/>
<rect width="20" height="20" transform="matrix(-1 0 0 1 290 200)" fill="#7881D0"/>
<rect x="230" y="220" width="20" height="20" fill="#CFD4FF"/>
<rect width="20" height="20" transform="matrix(-1 0 0 1 270 220)" fill="#7881D0"/>
<rect x="270" y="260" width="20" height="20" fill="#CFD4FF"/>
<rect width="20" height="20" transform="matrix(-1 0 0 1 230 260)" fill="#7881D0"/>
<rect x="290" y="280" width="20" height="20" fill="#CFD4FF"/>
<rect width="20" height="20" transform="matrix(-1 0 0 1 210 280)" fill="#7881D0"/>
<rect x="310" y="300" width="20" height="20" fill="#CFD4FF"/>
<rect width="20" height="20" transform="matrix(-1 0 0 1 190 300)" fill="#7881D0"/>
<rect x="330" y="320" width="20" height="20" fill="#CFD4FF"/>
<rect width="20" height="20" transform="matrix(-1 0 0 1 170 320)" fill="#7881D0"/>
<rect x="350" y="340" width="20" height="20" fill="#CFD4FF"/>
<rect width="20" height="20" transform="matrix(-1 0 0 1 150 340)" fill="#7881D0"/>
</svg>
